<svg xmlns="http://www.w3.org/2000/svg" xmlns:svg="http://www.w3.org/2000/svg" xmlns:xlink="http://www.w3.org/1999/xlink" width="1024" height="1024" viewBox="0 0 909.49 909.49" preserveAspectRatio="xMidYMid meet">
	<g transform="matrix(1, 0, 0, 1, 454.74493408203125, 624.9893798828125)">
		<path d="M454.74,-170.24 C454.74,80.9 251.15,284.5 0,284.5 C-251.15,284.5 -454.74,80.9 -454.74,-170.24 C-454.74,-421.39 -251.15,-624.99 0,-624.99 C251.15,-624.99 454.74,-421.39 454.74,-170.24 Z" style="fill:#5ABF45;" />
		<path transform="matrix(0.9753713607788086, 0.22056981921195984, -0.22056981921195984, 0.9753713607788086, 0.000030517578125, -170.244384765625)" d="M-358.37,-343.81 C-358.37,-365.9 -340.46,-383.81 -318.37,-383.81 C-117.75,-176.25 95.79,-197.97 318.37,-383.81 C340.46,-383.81 358.37,-365.9 358.37,-343.81 L358.37,343.81 C358.37,365.9 340.46,383.81 318.37,383.81 C82.21,-263.83 -130.94,-277.44 -318.37,383.81 C-340.46,383.81 -358.37,365.9 -358.37,343.81 L-358.37,-343.81 Z" style="fill:var(--foreground);" />
		<ellipse cx="-29.88" cy="-99.55" rx="138.78" ry="138.78" style="fill:var(--foreground);" />
	</g>
</svg>